<svg width="149" height="89" viewBox="0 0 149 89" fill="none" xmlns="http://www.w3.org/2000/svg">
<g clip-path="url(#clip0_165_2201)">
<path d="M33.3408 21.0534C40.1634 17.6883 46.9553 15.1414 53.6544 14.6321C53.7007 13.4589 53.7624 12.3013 53.8087 11.1436C47.0941 11.8536 40.3178 14.1227 33.5106 17.2561C33.4489 18.5219 33.4025 19.7876 33.3408 21.0534Z" fill="#FEFEFF"/>
<path d="M53.7333 17.2725C47.4663 17.6274 41.1068 19.9274 34.7318 23.03C34.67 24.2803 34.6237 25.546 34.562 26.8118C40.9524 23.5548 47.312 21.0697 53.5789 20.8536C53.6252 19.6496 53.687 18.461 53.7333 17.2725Z" fill="#FEFEFF"/>
<path d="M31.4116 34.8994C39.361 30.4848 47.2642 26.6722 54.9975 27.1969L55.1673 23.5078C47.434 23.1682 39.5308 26.7339 31.5968 31.0405C31.5351 32.3217 31.4887 33.6182 31.427 34.8994H31.4116Z" fill="#FEFEFF"/>
<path d="M55.6909 36.5051C55.6292 37.7709 55.5829 39.052 55.5211 40.3332C38.6344 37.8635 20.6671 59.8286 3.78027 57.3589L4.50576 53.6543C21.2228 55.5992 38.9894 33.8964 55.6909 36.5051Z" fill="#FEFEFF"/>
<path d="M58.8877 43.9465C58.826 45.2431 58.7796 46.5243 58.7179 47.8209C49.194 44.1472 39.2224 50.2289 29.2817 55.5388C19.3874 60.9876 9.53934 65.6801 0 63.3031L0.725485 59.6139C19.6189 65.2788 40.0251 37.2937 58.8877 43.9465Z" fill="#FEFEFF"/>
<path d="M57.0659 50.2591C57.0042 51.5557 56.9425 52.8677 56.8961 54.1644C47.7427 51.849 38.2342 57.6683 28.7721 62.3916C19.3253 67.3311 9.9404 71.19 0.771484 70.1095L1.49697 66.405C10.4652 67.7633 19.6958 63.5493 28.9419 58.5173C38.4195 53.5469 47.9279 47.7276 57.0659 50.2436V50.2591Z" fill="#FEFEFF"/>
<path d="M23.137 80.3281L22.9827 83.9401C17.5492 85.6227 12.1467 86.7185 6.74414 87.8765L7.40788 84.5109C12.6406 83.5388 17.8734 82.2267 23.1524 80.3281H23.137Z" fill="#FEFEFF"/>
<path d="M54.6286 60.4787C45.8764 59.707 36.8466 65.1558 27.8783 69.2154C18.694 73.6455 9.5869 76.5937 0.618652 76.5474L1.34414 72.8119C10.1117 73.3522 19.049 69.9564 28.0481 65.3565C37.0317 60.9881 46.0617 55.4312 54.8138 56.4808L54.6286 60.4787Z" fill="#FEFEFF"/>
<path d="M42.4335 69.6765C36.7995 71.6831 31.1345 74.5233 25.4851 76.7152C18.3383 79.6172 11.2378 81.4849 4.18359 82.4882L4.87822 78.9689C11.7472 78.2434 18.6778 76.0823 25.6549 72.9643C31.3043 70.5255 36.9847 67.4692 42.6188 65.4316L42.4335 69.6919V69.6765Z" fill="#FEFEFF"/>
<path d="M51.3389 5.54297L51.1845 8.87707C46.0753 9.72605 40.9352 11.3623 35.7642 13.4924L35.934 9.81873C41.0895 7.90465 46.2296 6.46912 51.3389 5.54297Z" fill="#FEFEFF"/>
<path d="M42.8199 1.80599C45.2587 1.17312 47.7131 0.601997 50.1519 0C50.1519 1.06507 50.1365 2.16101 50.1211 3.25696C47.6359 3.79721 45.1507 4.39921 42.6655 5.10925L42.8199 1.80599Z" fill="#FEFEFF"/>
<path d="M53.8396 33.4941C43.9452 33.0001 33.6958 40.2859 23.5391 45.6112L23.7089 41.706C33.8656 36.3806 44.0996 29.3264 54.0094 29.7432C53.9476 30.9781 53.9013 32.2284 53.8396 33.4941Z" fill="#FEFEFF"/>
<path d="M69.8612 60.7716H67.2063L66.6506 62.0219H65.9097L68.1633 57.0361H68.8733L71.1424 62.0219H70.4015L69.8457 60.7716H69.8612ZM69.6142 60.2005L68.5337 57.7617L67.4532 60.2005H69.5988H69.6142Z" fill="#FEFEFF"/>
<path d="M76.7944 62.469C76.64 62.6542 76.4393 62.8086 76.2386 62.9012C76.0226 62.9938 75.791 63.0556 75.5441 63.0556C75.2354 63.0556 74.942 62.9784 74.6642 62.824C74.3864 62.6696 74.0776 62.4226 73.7227 62.0522C73.2595 62.0213 72.8273 61.8979 72.4569 61.6817C72.0864 61.4502 71.7777 61.157 71.577 60.771C71.3609 60.4006 71.2529 59.9684 71.2529 59.5207C71.2529 59.0731 71.3609 58.61 71.5925 58.2242C71.824 57.8382 72.1328 57.5295 72.5495 57.3135C72.9663 57.0973 73.4139 56.9893 73.9078 56.9893C74.4018 56.9893 74.8649 57.0973 75.2662 57.3135C75.6675 57.5295 75.9917 57.8382 76.2078 58.2242C76.4393 58.61 76.5474 59.0422 76.5474 59.5362C76.5474 59.9375 76.4702 60.3234 76.3004 60.663C76.1306 61.0025 75.8991 61.2959 75.6058 61.5274C75.3125 61.7589 74.973 61.9287 74.587 62.0059C74.7568 62.1757 74.9111 62.3147 75.0656 62.3918C75.2199 62.469 75.3743 62.5153 75.5441 62.5153C75.8991 62.5153 76.1923 62.3764 76.4548 62.083L76.7944 62.4845V62.469ZM72.2254 60.4932C72.3952 60.7865 72.6267 61.018 72.9199 61.1878C73.2133 61.3576 73.5529 61.4348 73.9078 61.4348C74.2629 61.4348 74.6025 61.3576 74.8958 61.1878C75.189 61.018 75.4205 60.7865 75.5903 60.4932C75.7601 60.1999 75.8373 59.8758 75.8373 59.5207C75.8373 59.1657 75.7601 58.8262 75.5903 58.5483C75.4205 58.255 75.189 58.0234 74.8958 57.8537C74.6025 57.6839 74.2783 57.6067 73.9078 57.6067C73.5374 57.6067 73.2133 57.6839 72.9199 57.8537C72.6267 58.0234 72.3952 58.255 72.2254 58.5483C72.0556 58.8415 71.9784 59.1657 71.9784 59.5207C71.9784 59.8758 72.0556 60.2154 72.2254 60.4932Z" fill="#FEFEFF"/>
<path d="M78.0288 61.494C77.6583 61.1082 77.4731 60.5679 77.4731 59.8578V57.0176H78.1832V59.8269C78.1832 60.892 78.6462 61.4323 79.5878 61.4323C80.0509 61.4323 80.3905 61.2933 80.6375 61.0309C80.8845 60.7686 81.0079 60.3672 81.0079 59.8269V57.0176H81.7026V59.8578C81.7026 60.5679 81.5173 61.1235 81.1468 61.494C80.7764 61.8645 80.267 62.0651 79.5878 62.0651C78.9086 62.0651 78.3992 61.8799 78.0288 61.494Z" fill="#FEFEFF"/>
<path d="M83.0273 57.0176H83.7374V62.0034H83.0273V57.0176Z" fill="#FEFEFF"/>
<path d="M88.1553 57.635H86.4414V57.0176H90.5631V57.635H88.85V62.0034H88.1394V57.635H88.1553Z" fill="#FEFEFF"/>
<path d="M94.883 61.3859V62.0034H91.271V57.0176H94.7905V57.635H91.9816V59.1632H94.4819V59.7652H91.9816V61.3705H94.883V61.3859Z" fill="#FEFEFF"/>
<path d="M100.471 62.0034V58.3759L98.6652 61.4014H98.3406L96.535 58.3914V62.0034H95.8555V57.0176H96.4425L98.5265 60.5216L100.579 57.0176H101.165V62.0034H100.487H100.471Z" fill="#FEFEFF"/>
<path d="M105.441 57.9592H103.851V57.0176H108.188V57.9592H106.598V62.0034H105.441V57.9592Z" fill="#FEFEFF"/>
<path d="M111.94 62.0034L110.983 60.6142H109.918V62.0034H108.76V57.0176H110.922C111.369 57.0176 111.739 57.0948 112.079 57.2337C112.419 57.3726 112.65 57.5888 112.836 57.8666C113.005 58.1444 113.098 58.4531 113.098 58.8236C113.098 59.1941 113.005 59.5183 112.836 59.7806C112.65 60.043 112.403 60.2592 112.079 60.3981L113.191 62.0034H111.955H111.94ZM111.647 58.1753C111.462 58.021 111.199 57.9438 110.859 57.9438H109.918V59.6881H110.859C111.199 59.6881 111.477 59.6108 111.647 59.4564C111.832 59.3021 111.925 59.086 111.925 58.8082C111.925 58.5303 111.832 58.3142 111.647 58.1599V58.1753Z" fill="#FEFEFF"/>
<path d="M117.465 60.9383H115.15L114.702 62.0034H113.513L115.736 57.0176H116.879L119.102 62.0034H117.897L117.45 60.9383H117.465ZM117.095 60.0585L116.308 58.1444L115.52 60.0585H117.095Z" fill="#FEFEFF"/>
<path d="M123.965 59.8763C124.12 60.0925 124.213 60.3548 124.213 60.6636C124.213 61.0958 124.043 61.4354 123.703 61.6669C123.363 61.8985 122.87 62.0219 122.221 62.0219H119.644V57.0361H122.082C122.685 57.0361 123.163 57.1597 123.487 57.3912C123.812 57.6227 123.981 57.9468 123.981 58.3328C123.981 58.5798 123.919 58.7958 123.811 58.9811C123.688 59.1663 123.533 59.3207 123.317 59.4287C123.595 59.5213 123.827 59.6757 123.981 59.8763H123.965ZM120.786 57.9006V59.0737H121.928C122.206 59.0737 122.422 59.0273 122.576 58.9194C122.731 58.8267 122.792 58.6724 122.792 58.4717C122.792 58.271 122.715 58.1321 122.576 58.0395C122.422 57.9468 122.206 57.9006 121.928 57.9006H120.786ZM122.823 61.0032C122.977 60.9106 123.055 60.7562 123.055 60.5401C123.055 60.1233 122.746 59.9227 122.129 59.9227H120.786V61.1575H122.129C122.437 61.1575 122.669 61.1112 122.823 61.0032Z" fill="#FEFEFF"/>
<path d="M128.315 60.9383H126L125.553 62.0034H124.364L126.587 57.0176H127.729L129.952 62.0034H128.747L128.3 60.9383H128.315ZM127.945 60.0585L127.158 58.1444L126.371 60.0585H127.945Z" fill="#FEFEFF"/>
<path d="M130.493 57.0176H131.651V61.0618H134.151V62.0034H130.493V57.0176Z" fill="#FEFEFF"/>
<path d="M139.307 57.0176V62.0034H138.149V59.9658H135.88V62.0034H134.722V57.0176H135.88V58.978H138.149V57.0176H139.307Z" fill="#FEFEFF"/>
<path d="M141.499 61.7589C141.083 61.5428 140.758 61.2341 140.527 60.8328C140.295 60.4315 140.172 59.9992 140.172 59.5053C140.172 59.0114 140.295 58.5791 140.527 58.1778C140.758 57.7765 141.083 57.4832 141.499 57.2517C141.916 57.0356 142.379 56.9121 142.904 56.9121C143.429 56.9121 143.892 57.0202 144.293 57.2517C144.71 57.4678 145.034 57.7765 145.266 58.1778C145.497 58.5637 145.621 59.0114 145.621 59.5053C145.621 59.9992 145.497 60.4315 145.266 60.8328C145.034 61.2186 144.71 61.5274 144.293 61.7589C143.876 61.975 143.413 62.0985 142.904 62.0985C142.395 62.0985 141.916 61.9905 141.499 61.7589ZM143.691 60.91C143.923 60.7711 144.108 60.5858 144.246 60.3388C144.386 60.0919 144.447 59.814 144.447 59.5053C144.447 59.1966 144.386 58.9187 144.246 58.6718C144.108 58.4248 143.923 58.2396 143.691 58.1007C143.459 57.9617 143.182 57.9 142.888 57.9C142.595 57.9 142.332 57.9617 142.086 58.1007C141.854 58.2396 141.669 58.4248 141.53 58.6718C141.391 58.9187 141.329 59.1966 141.329 59.5053C141.329 59.814 141.391 60.0919 141.53 60.3388C141.669 60.5858 141.854 60.7711 142.086 60.91C142.317 61.0489 142.595 61.1107 142.888 61.1107C143.182 61.1107 143.444 61.0489 143.691 60.91Z" fill="#FEFEFF"/>
<path d="M146.161 61.9117C146.068 61.819 146.022 61.6956 146.022 61.5566C146.022 61.4177 146.068 61.3096 146.161 61.2171C146.253 61.1245 146.377 61.0781 146.5 61.0781C146.624 61.0781 146.748 61.1245 146.84 61.2171C146.933 61.3096 146.979 61.4177 146.979 61.5721C146.979 61.7264 146.933 61.8345 146.84 61.9271C146.748 62.0197 146.639 62.066 146.516 62.066C146.392 62.066 146.269 62.0197 146.176 61.9271L146.161 61.9117Z" fill="#231F20"/>
<path d="M69.8612 69.0137H67.2063L66.6506 70.264H65.9097L68.1633 65.2783H68.8733L71.1424 70.264H70.4015L69.8457 69.0137H69.8612ZM69.6142 68.4426L68.5337 66.0038L67.4532 68.4426H69.5988H69.6142Z" fill="#FEFEFF"/>
<path d="M76.7944 70.7102C76.64 70.8955 76.4393 71.0498 76.2386 71.1424C76.0226 71.235 75.791 71.2968 75.5441 71.2968C75.2354 71.2968 74.942 71.2196 74.6642 71.0652C74.3864 70.9109 74.0776 70.6639 73.7227 70.2934C73.2595 70.2625 72.8273 70.1391 72.4569 69.9229C72.0864 69.6914 71.7777 69.3982 71.577 69.0122C71.3609 68.6418 71.2529 68.2096 71.2529 67.7619C71.2529 67.3143 71.3609 66.8512 71.5925 66.4654C71.824 66.0794 72.1328 65.7707 72.5495 65.5546C72.9663 65.3385 73.4139 65.2305 73.9078 65.2305C74.4018 65.2305 74.8649 65.3385 75.2662 65.5546C75.6675 65.7707 75.9917 66.0794 76.2078 66.4654C76.4393 66.8512 76.5474 67.2834 76.5474 67.7774C76.5474 68.1787 76.4702 68.5646 76.3004 68.9042C76.1306 69.2438 75.8991 69.5371 75.6058 69.7686C75.3125 70.0001 74.973 70.1699 74.587 70.2471C74.7568 70.4169 74.9111 70.5559 75.0656 70.633C75.2199 70.7102 75.3743 70.7565 75.5441 70.7565C75.8991 70.7565 76.1923 70.6176 76.4548 70.3243L76.7944 70.7257V70.7102ZM72.2254 68.7344C72.3952 69.0277 72.6267 69.2592 72.9199 69.429C73.2133 69.5988 73.5529 69.676 73.9078 69.676C74.2629 69.676 74.6025 69.5988 74.8958 69.429C75.189 69.2592 75.4205 69.0277 75.5903 68.7344C75.7601 68.4411 75.8373 68.117 75.8373 67.7619C75.8373 67.407 75.7601 67.0674 75.5903 66.7895C75.4205 66.4962 75.189 66.2646 74.8958 66.0948C74.6025 65.925 74.2783 65.8479 73.9078 65.8479C73.5374 65.8479 73.2133 65.925 72.9199 66.0948C72.6267 66.2646 72.3952 66.4962 72.2254 66.7895C72.0556 67.0828 71.9784 67.407 71.9784 67.7619C71.9784 68.117 72.0556 68.4566 72.2254 68.7344Z" fill="#FEFEFF"/>
<path d="M78.0288 69.7391C77.6583 69.3532 77.4731 68.8129 77.4731 68.1029V65.2627H78.1832V68.072C78.1832 69.137 78.6462 69.6773 79.5878 69.6773C80.0509 69.6773 80.3905 69.5384 80.6375 69.276C80.8845 69.0136 81.0079 68.6123 81.0079 68.072V65.2627H81.7026V68.1029C81.7026 68.8129 81.5173 69.3687 81.1468 69.7391C80.7764 70.1096 80.267 70.3102 79.5878 70.3102C78.9086 70.3102 78.3992 70.125 78.0288 69.7391Z" fill="#FEFEFF"/>
<path d="M83.0273 65.2627H83.7374V70.2485H83.0273V65.2627Z" fill="#FEFEFF"/>
<path d="M88.1553 65.8801H86.4414V65.2627H90.5631V65.8801H88.85V70.2485H88.1394V65.8801H88.1553Z" fill="#FEFEFF"/>
<path d="M94.883 69.631V70.2485H91.271V65.2627H94.7905V65.8801H91.9816V67.4082H94.4819V68.0103H91.9816V69.6156H94.883V69.631Z" fill="#FEFEFF"/>
<path d="M100.471 70.2485V66.6211L98.6652 69.6464H98.3406L96.535 66.6365V70.2485H95.8555V65.2627H96.4425L98.5265 68.7666L100.579 65.2627H101.165V70.2485H100.487H100.471Z" fill="#FEFEFF"/>
<path d="M105.564 66.1889V67.5009H107.864V68.427H105.564V70.2485H104.406V65.2627H108.173V66.1889H105.564Z" fill="#FEFEFF"/>
<path d="M109.485 69.7546C109.083 69.3533 108.883 68.7977 108.883 68.0722V65.2783H110.041V68.0258C110.041 68.9211 110.411 69.3688 111.152 69.3688C111.507 69.3688 111.785 69.2607 111.986 69.0446C112.171 68.8286 112.263 68.489 112.263 68.0258V65.2783H113.406V68.0722C113.406 68.7977 113.205 69.3688 112.804 69.7546C112.402 70.156 111.847 70.3412 111.136 70.3412C110.427 70.3412 109.871 70.1406 109.469 69.7546H109.485Z" fill="#FEFEFF"/>
<path d="M115.553 66.2043H113.964V65.2627H118.301V66.2043H116.711V70.2485H115.553V66.2043Z" fill="#FEFEFF"/>
<path d="M119.459 69.7546C119.057 69.3533 118.856 68.7977 118.856 68.0722V65.2783H120.014V68.0258C120.014 68.9211 120.385 69.3688 121.125 69.3688C121.48 69.3688 121.759 69.2607 121.959 69.0446C122.144 68.8286 122.237 68.489 122.237 68.0258V65.2783H123.379V68.0722C123.379 68.7977 123.178 69.3688 122.777 69.7546C122.376 70.156 121.82 70.3412 121.11 70.3412C120.4 70.3412 119.845 70.1406 119.443 69.7546H119.459Z" fill="#FEFEFF"/>
<path d="M127.687 70.2485L126.73 68.8593H125.664V70.2485H124.507V65.2627H126.667C127.116 65.2627 127.486 65.3399 127.825 65.4788C128.165 65.6178 128.396 65.8339 128.581 66.1117C128.751 66.3895 128.844 66.6983 128.844 67.0687C128.844 67.4392 128.751 67.7633 128.581 68.0258C128.396 68.2882 128.149 68.5043 127.825 68.6431L128.937 70.2485H127.702H127.687ZM127.393 66.4204C127.208 66.2661 126.946 66.1889 126.606 66.1889H125.664V67.9331H126.606C126.946 67.9331 127.223 67.856 127.393 67.7016C127.578 67.5472 127.671 67.3311 127.671 67.0532C127.671 66.7755 127.578 66.5593 127.393 66.405V66.4204Z" fill="#FEFEFF"/>
<path d="M130.727 70.0012C130.31 69.785 129.986 69.4764 129.754 69.075C129.523 68.6737 129.399 68.2415 129.399 67.7476C129.399 67.2536 129.523 66.8214 129.754 66.4201C129.986 66.0187 130.31 65.7254 130.727 65.4939C131.144 65.2778 131.607 65.1543 132.132 65.1543C132.657 65.1543 133.12 65.2624 133.521 65.4939C133.937 65.71 134.262 66.0187 134.493 66.4201C134.725 66.8059 134.848 67.2536 134.848 67.7476C134.848 68.2415 134.725 68.6737 134.493 69.075C134.262 69.4609 133.937 69.7696 133.521 70.0012C133.104 70.2173 132.641 70.3408 132.132 70.3408C131.622 70.3408 131.144 70.2327 130.727 70.0012ZM132.919 69.1522C133.15 69.0133 133.335 68.8281 133.475 68.5811C133.614 68.3341 133.675 68.0563 133.675 67.7476C133.675 67.4388 133.614 67.161 133.475 66.914C133.335 66.6671 133.15 66.4818 132.919 66.3429C132.688 66.2039 132.409 66.1422 132.116 66.1422C131.823 66.1422 131.561 66.2039 131.314 66.3429C131.082 66.4818 130.896 66.6671 130.758 66.914C130.619 67.161 130.557 67.4388 130.557 67.7476C130.557 68.0563 130.619 68.3341 130.758 68.5811C130.896 68.8281 131.082 69.0133 131.314 69.1522C131.545 69.2911 131.823 69.3529 132.116 69.3529C132.409 69.3529 132.672 69.2911 132.919 69.1522Z" fill="#FEFEFF"/>
<path d="M135.386 70.1568C135.293 70.0642 135.247 69.9407 135.247 69.8018C135.247 69.6628 135.293 69.5548 135.386 69.4622C135.478 69.3696 135.602 69.3232 135.726 69.3232C135.849 69.3232 135.973 69.3696 136.065 69.4622C136.158 69.5548 136.204 69.6628 136.204 69.8172C136.204 69.9716 136.158 70.0796 136.065 70.1722C135.973 70.2648 135.864 70.3112 135.741 70.3112C135.618 70.3112 135.494 70.2648 135.402 70.1722L135.386 70.1568Z" fill="#FEFEFF"/>
<path d="M68.6867 21.842C69.1035 21.6105 69.5819 21.5024 70.1068 21.5024C70.9249 21.5024 71.6195 21.7957 72.2061 22.3668L73.1013 21.5024C72.7463 21.1011 72.3142 20.7924 71.7893 20.5762C71.2645 20.3602 70.6934 20.2676 70.0605 20.2676C69.2733 20.2676 68.5786 20.4374 67.9458 20.7769C67.3283 21.1165 66.8344 21.5796 66.4794 22.1661C66.1244 22.7527 65.9546 23.4319 65.9546 24.1728C65.9546 24.9137 66.1244 25.5929 66.4794 26.1795C66.8344 26.766 67.3283 27.2291 67.9458 27.5687C68.5633 27.9083 69.2578 28.0781 70.0296 28.0781C70.5853 28.0781 71.1101 28.0009 71.635 27.8311C72.1597 27.6613 72.6074 27.4298 72.9933 27.1211V24.0956H71.6658V26.4573C71.2182 26.7197 70.6934 26.8432 70.1068 26.8432C69.5819 26.8432 69.1035 26.7351 68.6867 26.5036C68.2699 26.2721 67.9458 25.948 67.7143 25.5466C67.4827 25.1452 67.3592 24.6822 67.3592 24.1883C67.3592 23.6943 67.4827 23.2004 67.7143 22.799C67.9458 22.3977 68.2699 22.0735 68.6867 21.8575V21.842Z" fill="#FEFEFF"/>
<path d="M80.9141 20.7769C80.2967 20.4374 79.602 20.2676 78.8148 20.2676C78.0276 20.2676 77.3484 20.4374 76.731 20.7769C76.1136 21.1165 75.6196 21.5796 75.2646 22.1816C74.9095 22.7836 74.7397 23.4474 74.7397 24.1883C74.7397 24.9292 74.9095 25.5929 75.2646 26.1949C75.6196 26.7969 76.1136 27.26 76.731 27.5996C77.3484 27.9392 78.043 28.109 78.8148 28.109C79.5866 28.109 80.2812 27.9392 80.9141 27.5996C81.5315 27.26 82.0255 26.7969 82.3805 26.2103C82.7355 25.6238 82.9053 24.9446 82.9053 24.2037C82.9053 23.4627 82.7355 22.7836 82.3805 22.197C82.0255 21.6105 81.5315 21.1474 80.9141 20.8078V20.7769ZM81.1456 25.5466C80.9141 25.948 80.5899 26.2721 80.1886 26.5036C79.7873 26.7351 79.3242 26.8432 78.8302 26.8432C78.3363 26.8432 77.8733 26.7351 77.4719 26.5036C77.0706 26.2721 76.7464 25.9633 76.5149 25.5466C76.2834 25.1452 76.1753 24.6822 76.1753 24.1728C76.1753 23.6634 76.2834 23.2158 76.5149 22.799C76.7464 22.3977 77.0706 22.0735 77.4719 21.842C77.8733 21.6105 78.3363 21.5024 78.8302 21.5024C79.3242 21.5024 79.7873 21.6105 80.1886 21.842C80.5899 22.0735 80.9141 22.3822 81.1456 22.799C81.3772 23.2004 81.4852 23.6634 81.4852 24.1728C81.4852 24.6822 81.3772 25.1298 81.1456 25.5466Z" fill="#FEFEFF"/>
<path d="M87.5823 26.2252L85.051 20.375H83.5225L86.8414 27.9695H88.2307L91.5333 20.375H90.1289L87.5823 26.2252Z" fill="#FEFEFF"/>
<path d="M94.173 24.697H97.8465V23.5394H94.173V21.5636H98.3098V20.375H92.7686V27.9695H98.4637V26.7809H94.173V24.697Z" fill="#FEFEFF"/>
<path d="M106.399 24.5594C106.677 24.1426 106.816 23.6487 106.816 23.093C106.816 22.5374 106.693 22.0588 106.431 21.6575C106.168 21.2561 105.797 20.9475 105.304 20.7313C104.809 20.5152 104.238 20.4072 103.59 20.4072H100.472V27.9861H101.877V25.7789H103.59C103.713 25.7789 103.822 25.7789 103.883 25.7789L105.427 28.0016H106.939L105.195 25.5165C105.72 25.3157 106.121 25.0071 106.399 24.5903V24.5594ZM103.528 24.6057H101.877V21.5803H103.528C104.146 21.5803 104.609 21.7038 104.933 21.9662C105.257 22.2286 105.411 22.5991 105.411 23.0776C105.411 23.5561 105.257 23.942 104.933 24.2044C104.609 24.4669 104.146 24.6057 103.528 24.6057Z" fill="#FEFEFF"/>
<path d="M114.162 25.5151L109.979 20.375H108.821V27.9695H110.211V22.8293L114.394 27.9695H115.552V20.375H114.162V25.5151Z" fill="#FEFEFF"/>
<path d="M123.671 20.7769C123.053 20.4374 122.358 20.2676 121.571 20.2676C120.784 20.2676 120.105 20.4374 119.488 20.7769C118.869 21.1165 118.376 21.5796 118.021 22.1816C117.666 22.7836 117.496 23.4474 117.496 24.1883C117.496 24.9292 117.666 25.5929 118.021 26.1949C118.376 26.7969 118.869 27.26 119.488 27.5996C120.105 27.9392 120.8 28.109 121.571 28.109C122.343 28.109 123.037 27.9392 123.671 27.5996C124.288 27.26 124.782 26.7969 125.136 26.2103C125.491 25.6238 125.661 24.9446 125.661 24.2037C125.661 23.4627 125.491 22.7836 125.136 22.197C124.782 21.6105 124.288 21.1474 123.671 20.8078V20.7769ZM123.902 25.5466C123.671 25.948 123.346 26.2721 122.945 26.5036C122.544 26.7351 122.08 26.8432 121.587 26.8432C121.092 26.8432 120.63 26.7351 120.228 26.5036C119.826 26.2721 119.503 25.9633 119.271 25.5466C119.039 25.1452 118.932 24.6822 118.932 24.1728C118.932 23.6634 119.039 23.2158 119.271 22.799C119.503 22.3977 119.826 22.0735 120.228 21.842C120.63 21.6105 121.092 21.5024 121.587 21.5024C122.08 21.5024 122.544 21.6105 122.945 21.842C123.346 22.0735 123.671 22.3822 123.902 22.799C124.133 23.2004 124.242 23.6634 124.242 24.1728C124.242 24.6822 124.133 25.1298 123.902 25.5466Z" fill="#FEFEFF"/>
<path d="M136.482 20.8535C135.85 20.5448 135.139 20.375 134.322 20.375H131.002V27.954H134.322C135.124 27.954 135.85 27.7997 136.482 27.4755C137.116 27.1667 137.594 26.7192 137.949 26.1481C138.289 25.5769 138.474 24.9131 138.474 24.1568C138.474 23.4005 138.304 22.7367 137.949 22.1655C137.609 21.5944 137.116 21.1468 136.482 20.8381V20.8535ZM136.698 25.546C136.467 25.9474 136.143 26.2406 135.726 26.4567C135.309 26.6728 134.815 26.7809 134.26 26.7809H132.423V21.579H134.26C134.815 21.579 135.309 21.687 135.726 21.9032C136.143 22.1193 136.467 22.4125 136.698 22.8139C136.931 23.2152 137.038 23.6628 137.038 24.1877C137.038 24.7125 136.931 25.1601 136.698 25.5615V25.546Z" fill="#FEFEFF"/>
<path d="M147.489 22.1661C147.133 21.5796 146.639 21.1165 146.022 20.7769C145.405 20.4374 144.71 20.2676 143.923 20.2676C143.136 20.2676 142.456 20.4374 141.839 20.7769C141.222 21.1165 140.727 21.5796 140.372 22.1816C140.018 22.7836 139.848 23.4474 139.848 24.1883C139.848 24.9292 140.018 25.5929 140.372 26.1949C140.727 26.7969 141.222 27.26 141.839 27.5996C142.456 27.9392 143.151 28.109 143.923 28.109C144.694 28.109 145.389 27.9392 146.022 27.5996C146.639 27.26 147.133 26.7969 147.489 26.2103C147.844 25.6238 148.014 24.9446 148.014 24.2037C148.014 23.4627 147.844 22.7836 147.489 22.197V22.1661ZM146.253 25.5466C146.022 25.948 145.698 26.2721 145.296 26.5036C144.895 26.7351 144.432 26.8432 143.938 26.8432C143.445 26.8432 142.981 26.7351 142.58 26.5036C142.179 26.2721 141.854 25.9633 141.623 25.5466C141.392 25.1452 141.283 24.6822 141.283 24.1728C141.283 23.6634 141.392 23.2158 141.623 22.799C141.854 22.3977 142.179 22.0735 142.58 21.842C142.981 21.6105 143.445 21.5024 143.938 21.5024C144.432 21.5024 144.895 21.6105 145.296 21.842C145.698 22.0735 146.022 22.3822 146.253 22.799C146.486 23.2004 146.593 23.6634 146.593 24.1728C146.593 24.6822 146.486 25.1298 146.253 25.5466Z" fill="#FEFEFF"/>
<path d="M81.1912 31.9673C82.6576 32.631 83.7844 33.5725 84.5867 34.792C85.3898 36.0114 85.7758 37.4624 85.7758 39.114C85.7758 40.7657 85.3747 42.2012 84.5867 43.4206C83.7844 44.64 82.6576 45.5816 81.1912 46.2299C79.7248 46.8936 77.996 47.2178 76.0048 47.2178H72.1767V52.9754H65.9561V30.9639H76.0202C78.0114 30.9639 79.7402 31.2881 81.2066 31.9518L81.1912 31.9673ZM78.5208 41.4911C79.1691 40.9355 79.4932 40.1482 79.4932 39.114C79.4932 38.0798 79.1691 37.2926 78.5208 36.7214C77.8725 36.1503 76.9 35.8725 75.6342 35.8725H72.1767V42.3246H75.6342C76.9155 42.3246 77.8725 42.0468 78.5208 41.4911Z" fill="#FEFEFF"/>
<path d="M86.9028 30.9785H93.1236V52.99H86.9028V30.9785Z" fill="#FEFEFF"/>
<path d="M111.692 48.7142H102.384L100.655 52.99H94.311L104.02 30.9785H110.148L119.888 52.99H113.405L111.676 48.7142H111.692ZM109.87 44.1298L107.045 37.0911L104.22 44.1298H109.885H109.87Z" fill="#FEFEFF"/>
<path d="M121.2 50.7518C119.395 48.9766 118.484 46.4452 118.484 43.1728V30.9785H124.705V42.9876C124.705 46.5069 126.093 48.2666 128.888 48.2666C131.682 48.2666 133.04 46.5069 133.04 42.9876V30.9785H139.168V43.1728C139.168 46.4452 138.257 48.9612 136.451 50.7518C134.645 52.5268 132.098 53.4222 128.826 53.4222C125.553 53.4222 123.007 52.5268 121.2 50.7518Z" fill="#FEFEFF"/>
<path d="M147.086 30.9785H140.865V34.9763L147.086 30.9785Z" fill="#FEFEFF"/>
<path d="M140.865 36.7831V52.9907H147.086V32.7852L140.865 36.7831Z" fill="#FEFEFF"/>
<path d="M72.9796 24.0801H70.479V25.1914H72.9796V24.0801Z" fill="#FEFEFF"/>
</g>
<defs>
<clipPath id="clip0_165_2201">
<rect width="148.014" height="88.3039" fill="white"/>
</clipPath>
</defs>
</svg>
